<svg width="298" height="232" viewBox="0 0 298 232" fill="none" xmlns="http://www.w3.org/2000/svg">
<path d="M-13.5 183.207C91.5 78.2074 207 20.7074 254 55.7074M-13.5 183.207C-43.5 198.207 -4 165.707 -13.5 183.207Z" stroke="black"/>
<circle cx="-15.2424" cy="178.434" r="44.5" fill="#FAE98F"/>
<circle cx="-22.3787" cy="183.302" r="44.5" fill="#FAE98F"/>
<circle cx="-20.9082" cy="186.518" r="44.5" fill="#FAE98F"/>
<circle cx="253.49" cy="55.333" r="44.5" fill="#FAE98F"/>
<circle cx="246.017" cy="50.9412" r="44.5" fill="#FAE98F"/>
<circle cx="237.897" cy="47.9297" r="44.5" fill="#FAE98F"/>
<circle cx="229.421" cy="46.1719" r="44.5" fill="#FAE98F"/>
<circle cx="220.794" cy="45.4773" r="44.5" fill="#FAE98F"/>
<circle cx="212.14" cy="45.6572" r="44.5" fill="#FAE98F"/>
<circle cx="203.529" cy="46.5525" r="44.5" fill="#FAE98F"/>
<circle cx="194.998" cy="48.0369" r="44.5" fill="#FAE98F"/>
<circle cx="186.565" cy="50.0112" r="44.5" fill="#FAE98F"/>
<circle cx="178.238" cy="52.3992" r="44.5" fill="#FAE98F"/>
<circle cx="170.019" cy="55.1409" r="44.5" fill="#FAE98F"/>
<circle cx="161.908" cy="58.1887" r="44.5" fill="#FAE98F"/>
<circle cx="153.902" cy="61.5051" r="44.5" fill="#FAE98F"/>
<circle cx="145.997" cy="65.0593" r="44.5" fill="#FAE98F"/>
<circle cx="138.191" cy="68.8264" r="44.5" fill="#FAE98F"/>
<circle cx="130.48" cy="72.7852" r="44.5" fill="#FAE98F"/>
<circle cx="122.861" cy="76.9187" r="44.5" fill="#FAE98F"/>
<circle cx="115.331" cy="81.2119" r="44.5" fill="#FAE98F"/>
<circle cx="107.886" cy="85.6528" r="44.5" fill="#FAE98F"/>
<circle cx="100.524" cy="90.2307" r="44.5" fill="#FAE98F"/>
<circle cx="93.2427" cy="94.936" r="44.5" fill="#FAE98F"/>
<circle cx="86.04" cy="99.761" r="44.5" fill="#FAE98F"/>
<circle cx="78.9138" cy="104.698" r="44.5" fill="#FAE98F"/>
<circle cx="71.8623" cy="109.743" r="44.5" fill="#FAE98F"/>
<circle cx="64.8843" cy="114.888" r="44.5" fill="#FAE98F"/>
<circle cx="57.9783" cy="120.129" r="44.5" fill="#FAE98F"/>
<circle cx="51.1428" cy="125.463" r="44.5" fill="#FAE98F"/>
<circle cx="44.3772" cy="130.885" r="44.5" fill="#FAE98F"/>
<circle cx="37.6804" cy="136.392" r="44.5" fill="#FAE98F"/>
<circle cx="31.0515" cy="141.98" r="44.5" fill="#FAE98F"/>
<circle cx="24.4902" cy="147.648" r="44.5" fill="#FAE98F"/>
<circle cx="17.9956" cy="153.392" r="44.5" fill="#FAE98F"/>
<circle cx="11.5676" cy="159.211" r="44.5" fill="#FAE98F"/>
<circle cx="5.20581" cy="165.102" r="44.5" fill="#FAE98F"/>
<circle cx="-1.09009" cy="171.063" r="44.5" fill="#FAE98F"/>
<circle cx="-7.32666" cy="177.1" r="44.5" fill="#FAE98F"/>
<circle cx="-13.5" cy="183.207" r="44.5" fill="#FAE98F"/>
</svg>
