<svg width="324" height="270" viewBox="0 0 324 270" fill="none" xmlns="http://www.w3.org/2000/svg">
<path d="M318.5 225C40.5002 146.6 -23.5 55.5002 116 45.0002" stroke="black"/>
<circle cx="114.674" cy="45.103" r="44.5" fill="#FAE98F"/>
<circle cx="101.147" cy="46.519" r="44.5" fill="#FAE98F"/>
<circle cx="87.9203" cy="48.7102" r="44.5" fill="#FAE98F"/>
<circle cx="74.9546" cy="51.9868" r="44.5" fill="#FAE98F"/>
<circle cx="62.6431" cy="56.8384" r="44.5" fill="#FAE98F"/>
<circle cx="51.8636" cy="64.1917" r="44.5" fill="#FAE98F"/>
<circle cx="45.099" cy="75.8923" r="44.5" fill="#FAE98F"/>
<circle cx="46.441" cy="89.0166" r="44.5" fill="#FAE98F"/>
<circle cx="52.9016" cy="100.523" r="44.5" fill="#FAE98F"/>
<circle cx="61.6782" cy="110.533" r="44.5" fill="#FAE98F"/>
<circle cx="71.649" cy="119.459" r="44.5" fill="#FAE98F"/>
<circle cx="82.3312" cy="127.587" r="44.5" fill="#FAE98F"/>
<circle cx="93.4834" cy="135.098" r="44.5" fill="#FAE98F"/>
<circle cx="104.97" cy="142.116" r="44.5" fill="#FAE98F"/>
<circle cx="116.708" cy="148.725" r="44.5" fill="#FAE98F"/>
<circle cx="128.642" cy="154.986" r="44.5" fill="#FAE98F"/>
<circle cx="140.734" cy="160.948" r="44.5" fill="#FAE98F"/>
<circle cx="152.956" cy="166.645" r="44.5" fill="#FAE98F"/>
<circle cx="165.289" cy="172.107" r="44.5" fill="#FAE98F"/>
<circle cx="177.716" cy="177.356" r="44.5" fill="#FAE98F"/>
<circle cx="190.225" cy="182.412" r="44.5" fill="#FAE98F"/>
<circle cx="202.805" cy="187.29" r="44.5" fill="#FAE98F"/>
<circle cx="215.449" cy="192.005" r="44.5" fill="#FAE98F"/>
<circle cx="228.15" cy="196.566" r="44.5" fill="#FAE98F"/>
<circle cx="240.901" cy="200.986" r="44.5" fill="#FAE98F"/>
<circle cx="253.699" cy="205.271" r="44.5" fill="#FAE98F"/>
<circle cx="266.539" cy="209.43" r="44.5" fill="#FAE98F"/>
<circle cx="279.419" cy="213.47" r="44.5" fill="#FAE98F"/>
<circle cx="292.335" cy="217.398" r="44.5" fill="#FAE98F"/>
<circle cx="305.358" cy="221.239" r="44.5" fill="#FAE98F"/>
<circle cx="318.5" cy="225" r="44.5" fill="#FAE98F"/>
</svg>
